<svg width="734" height="403" viewBox="0 0 734 403" fill="none" xmlns="http://www.w3.org/2000/svg">
<path d="M0 340.56V331.716H54.4989V340.56H32.0724V401.401H22.4225V340.56H0Z" fill="#FCFCFC"/>
<path d="M64.2415 331.716H73.8027V362.003H110.074V331.716H119.635V401.401H110.074V371.206H73.8027V401.401H64.2415V331.716Z" fill="#FCFCFC"/>
<path d="M136.618 331.716H181.201V340.56H146.179V361.197H179.416V370.4H146.179V392.375H182.095V401.401H136.622V331.716H136.618Z" fill="#FCFCFC"/>
<path d="M243.476 331.716H262.147L275.637 401.401H258.751C257.679 396.13 256.696 390.772 255.624 385.497H230.341C227.48 390.767 224.624 396.126 221.763 401.401H205.324L243.472 331.716H243.476ZM252.768 370.041C252.143 366.56 251.16 361.02 249.282 350.923H249.101L238.738 370.041H252.763H252.768Z" fill="#FCFCFC"/>
<path d="M294.139 331.716H321.924C325.41 331.716 343.009 331.716 343.009 349.762C343.009 363.969 332.022 377.995 313.616 377.995H301.557C299.768 388.269 299.413 391.126 297.624 401.401H281.81L294.139 331.716ZM313.35 362.535C319.604 362.535 326.127 360.214 326.127 353.155C326.127 346.096 320.14 346.366 316.658 346.366H307.367C306.114 353.155 304.954 359.944 304.506 362.535H313.35Z" fill="#FCFCFC"/>
<path d="M354.9 331.716H401.09L398.5 346.366H368.123C367.495 350.028 367.942 346.99 365.98 358.425H394.567L391.799 373.881H363.212C362.499 378.172 361.693 382.459 360.98 386.746H392.25L389.66 401.396H342.578L354.908 331.711L354.9 331.716Z" fill="#FCFCFC"/>
<path d="M424.504 382.37L433.436 379.244C436.297 389.784 443.622 394.075 451.306 394.075C458.365 394.075 465.602 390.679 465.602 382.906C465.602 375.134 458.635 373.438 452.289 371.472L445.854 369.505C438.977 367.362 426.913 362.897 426.913 349.762C426.913 336.627 437.989 330.285 450.23 330.285C462.471 330.285 471.138 337.074 473.817 346.724L465.062 350.298C462.737 343.509 457.467 339.041 449.783 339.041C442.099 339.041 437.006 343.062 437.006 349.045C437.006 356.551 445.584 359.408 450.496 361.02L457.551 363.252C464.699 365.573 475.957 368.699 475.957 381.657C475.957 394.615 465.416 402.923 451.391 402.923C439.509 402.923 428.251 396.759 424.5 382.375L424.504 382.37Z" fill="#FCFCFC"/>
<path d="M488.032 331.716H497.593V362.003H533.864V331.716H543.426V401.401H533.864V371.206H497.593V401.401H488.032V331.716Z" fill="#FCFCFC"/>
<path d="M580.059 331.716H591.047L618.473 401.401H608.199L599.621 379.961H571.122C568.261 387.105 565.582 394.253 562.725 401.401H552.628L580.055 331.716H580.059ZM596.232 370.754C592.747 361.999 588.996 352.349 585.599 343.15H585.422L574.611 370.754H596.232Z" fill="#FCFCFC"/>
<path d="M627.688 331.716H653.241C662.621 331.716 676.739 336.539 676.739 353.066C676.739 369.594 662.267 375.223 654.136 375.223H637.249V401.401H627.688V331.716ZM651.807 366.02C659.579 366.02 666.638 362.535 666.638 353.244C666.638 343.952 659.225 340.556 651.541 340.556H637.245V366.016H651.807V366.02Z" fill="#FCFCFC"/>
<path d="M687.731 331.716H732.314V340.56H697.292V361.197H730.529V370.4H697.292V392.375H733.209V401.401H687.735V331.716H687.731Z" fill="#FCFCFC"/>
<path d="M414.95 261.559H318.201C252.739 261.559 235.796 244.616 235.796 179.154V82.4051C235.792 16.9428 252.739 0 318.197 0H414.946C480.409 0 497.352 16.9428 497.352 82.4051V179.154C497.352 244.616 480.409 261.559 414.946 261.559H414.95ZM318.197 3.55778C254.826 3.55778 239.354 19.0299 239.354 82.401V179.15C239.354 242.521 254.83 257.993 318.197 257.993H414.946C478.318 257.993 493.79 242.521 493.79 179.15V82.401C493.79 19.0299 478.314 3.55778 414.946 3.55778H318.197Z" fill="#FCFCFC"/>
<path d="M436.483 172.49C436.688 173.477 434.436 176.281 433.191 177.925C428.078 184.638 420.841 194.332 415.676 201.089C413.992 203.261 413.48 203.636 410.663 204.796C408.588 205.662 406.703 206.371 403.991 207.467C398.068 209.82 391.767 212.343 385.848 214.688C381.629 216.678 378.478 216.066 374.022 216.162C368.192 216.17 361.209 216.162 355.576 216.162C352.147 216.295 349.911 215.888 346.909 214.555C341.639 212.459 330.128 207.874 324.269 205.541C321.211 204.312 319.33 203.785 317.541 201.242C313.302 195.738 305.002 184.618 299.816 177.804C298.358 175.689 295.594 173.05 297.072 171.386C298.241 170.238 299.417 169.823 301.315 168.868C310.405 164.605 324.983 157.135 333.327 153.484C336.961 152.565 340.632 152.408 344.919 151.76C350.89 150.99 357.156 150.168 363.103 149.407C367.374 148.641 371.065 149.644 375.521 150.12C381.677 150.909 389.035 151.876 394.974 152.642C398.076 153.013 399.748 153.242 402.319 154.58C409.152 157.864 423.911 165.068 431.664 168.807C434.673 170.342 436.293 170.866 436.483 172.437V172.486V172.49Z" fill="#FCFCFC"/>
<path d="M435.64 152.884C434.19 148.879 431.446 141.413 429.983 137.412C429.057 134.789 428.384 133.173 426.684 131.187C423.38 127.133 417.227 119.792 413.633 115.424C412.569 114.006 411.159 112.664 410.933 110.932C410.776 109.719 412.791 105.621 413.983 102.922C418.198 93.3725 422.997 82.7798 427.211 73.1258C428.098 70.8211 428.001 70.0596 426.115 67.9604C424.943 66.7073 423.811 65.6154 422.521 64.3261C419.262 61.0785 415.708 57.5409 412.428 54.2773C410.293 52.1539 408.355 50.2199 406.957 48.8298C404.495 46.509 403.951 45.4977 401.151 45.5339C390.09 45.9892 340.153 44.6032 329.278 46.0779C326.703 48.032 323.875 51.1546 320.808 54.1483C317.46 57.4845 313.802 61.1269 310.465 64.451C309.172 65.7403 308.076 66.792 306.92 68.045C304.982 70.2047 305.014 70.9662 306.066 73.565C308.004 77.9609 309.974 82.3648 311.976 86.8735C314.362 92.2363 316.948 98.0585 319.245 103.22C320.518 106.105 322.416 109.868 322.15 111.053C321.868 112.713 320.502 114.058 319.463 115.432C316.417 119.111 310.78 125.912 307.685 129.647C305.51 132.133 304.285 133.926 303.306 136.924C301.936 140.639 299.216 148.085 297.653 152.364C296.52 155.894 295.215 158.952 301.295 155.66C309.43 151.711 325.962 143.613 332.155 140.655C334.234 139.7 335.459 139.749 338.049 139.362C344.093 138.564 351.551 137.609 357.813 136.787C362.12 136.312 365.637 135.361 369.791 136.074C377.713 137.105 386.722 138.278 394.51 139.293C397.27 139.72 398.604 139.632 400.804 140.599C408.206 144.14 423.222 151.502 431.567 155.551C434.432 156.989 436.092 157.646 436.358 156.57L436.37 156.526C436.495 155.394 436.027 154.088 435.632 152.9L435.64 152.884ZM364.348 119.2C364.348 120.267 363.131 120.876 362.277 120.235L349.42 110.617C347.296 109.03 346.724 106.089 348.094 103.82C349.468 101.548 352.337 100.69 354.734 101.834L362.97 105.77C363.816 106.173 364.352 107.027 364.352 107.962V119.2H364.348ZM383.732 110.617L370.875 120.235C370.021 120.876 368.804 120.263 368.804 119.2V107.962C368.804 107.027 369.34 106.173 370.186 105.77L378.422 101.834C380.815 100.69 383.688 101.548 385.062 103.82C386.432 106.089 385.86 109.03 383.736 110.617H383.732ZM406.61 79.0689C405.849 80.8941 404.813 83.1827 403.89 85.29C402.96 87.4416 402.081 89.3071 401.292 90.4111C400.816 91.092 400.28 91.64 399.523 91.7931L399.454 91.8052C398.141 91.9543 396.743 91.2411 395.465 90.6891C391.42 88.7833 383.7 85.1127 379.385 83.0739C377.721 82.2963 376.165 81.5227 374.352 81.2447C371.697 80.8417 368.792 80.9747 366.04 80.9425C362.728 80.9989 359.916 80.7692 357.019 81.6637C351.297 83.9926 343.529 88.0057 338.013 90.5118C336.417 91.1525 334.592 92.329 332.96 91.5393C330.607 89.7745 329.02 84.4519 327.541 81.5025C325.821 77.3243 323.77 74.6489 327.565 70.9863C328.951 69.4472 330.559 67.8839 332.026 66.4172C333.512 64.9788 335.245 63.1616 336.744 62.5371C346.978 61.7273 383.188 62.5049 393.769 62.243C397.383 61.9005 399.168 64.725 401.896 67.2311C404.027 69.6366 407.11 71.6753 407.718 74.7617C407.799 76.2404 407.166 77.6426 406.61 79.0729V79.0689Z" fill="#FCFCFC"/>
</svg>
