<svg width="806" height="115" viewBox="0 0 806 115" fill="none" xmlns="http://www.w3.org/2000/svg">
<path d="M140.063 33.6277V25.5975H189.549V33.6277H169.186V88.872H160.422V33.6277H140.059H140.063Z" fill="white"/>
<path d="M198.394 25.5935H207.072V53.0928H240.011V25.5935H248.69V88.868H240.011V61.4493H207.072V88.868H198.394V25.5935Z" fill="white"/>
<path d="M264.114 25.5935H304.595V33.6237H272.793V52.3635H302.971V60.72H272.793V80.6766H305.405V88.872H264.114V25.5935Z" fill="white"/>
<path d="M361.149 25.5935H378.104L390.352 88.868H375.021C374.046 84.0813 373.156 79.214 372.181 74.4273H349.222C346.628 79.214 344.029 84.0813 341.434 88.868H326.506L361.145 25.5935H361.149ZM369.586 60.3977C369.018 57.2348 368.127 52.2063 366.423 43.0359H366.262L356.854 60.3977H369.59H369.586Z" fill="white"/>
<path d="M407.154 25.5935H432.385C435.548 25.5935 451.527 25.5935 451.527 41.9802C451.527 54.8817 441.551 67.618 424.838 67.618H413.887C412.263 76.9496 411.941 79.5444 410.317 88.872H395.957L407.15 25.5975L407.154 25.5935ZM424.592 53.5803C430.269 53.5803 436.192 51.473 436.192 45.0626C436.192 38.6521 430.757 38.8979 427.594 38.8979H419.157C418.021 45.0626 416.965 51.2272 416.562 53.5803H424.592Z" fill="white"/>
<path d="M462.322 25.5935H504.262L501.909 38.8979H474.325C473.757 42.222 474.164 39.466 472.379 49.8493H498.339L495.825 63.8829H469.865C469.216 67.7792 468.487 71.6714 467.838 75.5636H496.232L493.879 88.868H451.125L462.318 25.5935H462.322Z" fill="white"/>
<path d="M525.528 71.5907L533.639 68.7501C536.233 78.3235 542.886 82.2157 549.864 82.2157C556.275 82.2157 562.842 79.1334 562.842 72.0742C562.842 65.0151 556.516 63.4759 550.755 61.691L544.912 59.906C538.667 57.9599 527.716 53.9025 527.716 41.9761C527.716 30.0497 537.777 24.292 548.889 24.292C560.002 24.292 567.875 30.4567 570.304 39.2202L562.355 42.4637C560.243 36.299 555.461 32.2416 548.482 32.2416C541.504 32.2416 536.882 35.892 536.882 41.3274C536.882 48.1448 544.671 50.7396 549.131 52.1982L555.537 54.2249C562.028 56.3321 572.25 59.1727 572.25 70.938C572.25 82.7032 562.677 90.2459 549.941 90.2459C539.151 90.2459 528.928 84.6453 525.52 71.5867L525.528 71.5907Z" fill="white"/>
<path d="M583.214 25.5935H591.893V53.0928H624.831V25.5935H633.51V88.868H624.831V61.4493H591.893V88.868H583.214V25.5935Z" fill="white"/>
<path d="M666.779 25.5935H676.759L701.664 88.868H692.336L684.548 69.3989H658.668C656.074 75.8859 653.64 82.3769 651.041 88.868H641.875L666.779 25.5935ZM681.462 61.0464C678.299 53.0968 674.89 44.3333 671.808 35.9808H671.646L661.831 61.0464H681.462Z" fill="white"/>
<path d="M710.025 25.5935H733.225C741.743 25.5935 754.559 29.9732 754.559 44.982C754.559 59.9907 741.416 65.0998 734.035 65.0998H718.704V88.868H710.025V25.5935ZM731.927 56.7472C738.987 56.7472 745.393 53.5843 745.393 45.1472C745.393 36.7101 738.66 33.6277 731.682 33.6277H718.704V56.7472H731.927Z" fill="white"/>
<path d="M764.548 25.5935H805.029V33.6237H773.227V52.3635H803.405V60.72H773.227V80.6766H805.839V88.872H764.548V25.5935Z" fill="white"/>
<path d="M42.3185 39.8245C43.0438 40.1751 43.8536 39.6553 44.5628 39.3692C47.0085 38.2572 50.4575 36.4763 52.9959 35.4448C54.2812 35.0499 55.5262 35.1506 56.9969 35.1265C58.2177 35.1386 59.5071 35.0822 60.6836 35.2594C61.4894 35.3843 62.1784 35.7268 62.9158 36.0693C64.8296 36.9759 68.2544 38.6037 70.0515 39.4498C70.6156 39.6956 71.2401 40.0099 71.8203 39.9454H71.8485C72.1869 39.8729 72.4247 39.6271 72.6342 39.3249C72.9847 38.8333 73.3756 38.0073 73.7865 37.0524C74.1935 36.1177 74.6568 35.1023 74.9913 34.2924C75.2411 33.6598 75.5191 33.0353 75.4828 32.3786C75.2129 31.0086 73.847 30.1061 72.9001 29.0384C71.6913 27.9263 70.8976 26.6732 69.294 26.8263C64.6 26.9432 48.5356 26.5967 43.9947 26.9553C43.3299 27.2293 42.5603 28.0391 41.9035 28.6757C41.2508 29.3285 40.5417 30.0215 39.9252 30.7024C38.241 32.3262 39.1516 33.5148 39.9131 35.3682C40.5699 36.6777 41.2709 39.0388 42.3185 39.8205V39.8245Z" fill="white"/>
<path d="M78.6942 0H35.7712C7.15585 0 0 7.15585 0 35.7712V78.6942C0 107.31 7.15585 114.465 35.7712 114.465H78.6942C107.31 114.465 114.465 107.31 114.465 78.6942V35.7712C114.465 7.15585 107.314 0 78.6942 0ZM26.6571 66.8081C27.3502 64.9103 28.5589 61.6064 29.1633 59.9584C29.5985 58.6288 30.1424 57.8351 31.1054 56.7311C32.4793 55.0751 34.9774 52.0572 36.3312 50.4254C36.7946 49.817 37.399 49.2206 37.5239 48.4833C37.6407 47.9595 36.7986 46.2874 36.2345 45.0101C35.2152 42.7215 34.0668 40.1348 33.0072 37.7576C32.1207 35.7551 31.2424 33.8009 30.3842 31.8508C29.9168 30.6984 29.9047 30.36 30.7629 29.401C31.2746 28.845 31.7621 28.3776 32.3343 27.8055C33.813 26.3308 35.4368 24.7151 36.9235 23.2364C38.2854 21.9067 39.5385 20.5247 40.6828 19.6544C45.5057 19.0017 67.6623 19.6181 72.5698 19.4127C73.8108 19.3965 74.0526 19.8438 75.1445 20.8753C75.765 21.4917 76.6272 22.3499 77.5741 23.2928C79.0286 24.7393 80.604 26.3106 82.0505 27.7531C82.6227 28.3252 83.1263 28.8087 83.6461 29.3648C84.4841 30.2955 84.5244 30.634 84.1336 31.6574C82.2641 35.9404 80.1326 40.6425 78.2631 44.8772C77.7352 46.0738 76.8408 47.891 76.9093 48.4309C77.01 49.2005 77.6345 49.7968 78.1059 50.4254C79.7015 52.3634 82.4293 55.619 83.8959 57.42C84.6493 58.3024 84.9475 59.0196 85.3585 60.1841C86.0072 61.9569 87.224 65.2729 87.8687 67.0498C88.0419 67.5776 88.2514 68.1538 88.195 68.6575V68.6776C88.0701 69.1571 87.3368 68.863 86.0636 68.2263C82.3608 66.4293 75.7005 63.1616 72.4127 61.5903C71.4376 61.1632 70.8453 61.1994 69.6204 61.0101C66.1634 60.5588 62.1664 60.039 58.653 59.5797C56.8076 59.2614 55.2483 59.6845 53.3385 59.898C50.5624 60.2647 47.2504 60.6877 44.5709 61.0423C43.4226 61.2155 42.8787 61.1954 41.956 61.6185C39.2081 62.932 31.875 66.522 28.2648 68.2747C25.5693 69.7333 26.1454 68.3795 26.6491 66.8121L26.6571 66.8081ZM88.2474 75.7408C88.3361 76.18 87.3368 77.421 86.7888 78.1503C84.5204 81.1278 81.3091 85.431 79.0165 88.4287C78.2671 89.3917 78.0415 89.5569 76.7924 90.0726C75.8697 90.4554 75.0357 90.7737 73.831 91.2572C71.2039 92.3008 68.4077 93.4209 65.7806 94.4604C63.9111 95.3428 62.5129 95.0729 60.5346 95.1132C57.9479 95.1132 54.8494 95.1132 52.3513 95.1132C50.8283 95.1736 49.8371 94.9923 48.5075 94.4C46.1705 93.4692 41.0615 91.4345 38.4627 90.399C37.1048 89.8551 36.2708 89.6173 35.4771 88.4932C33.5954 86.0515 29.9127 81.1157 27.6121 78.0938C26.9634 77.155 25.7385 75.9866 26.3953 75.2452C26.915 74.7335 27.4348 74.5522 28.2769 74.1291C32.3101 72.2354 38.777 68.9234 42.4798 67.3037C44.0915 66.8967 45.7193 66.8242 47.6251 66.5381C50.2763 66.1956 53.0524 65.833 55.6915 65.4946C57.5852 65.1561 59.2251 65.5993 61.1994 65.8088C63.9312 66.1594 67.1949 66.5865 69.83 66.9289C71.2079 67.0941 71.9493 67.1949 73.0896 67.7912C76.1195 69.2457 82.671 72.4449 86.1079 74.1049C87.4416 74.7859 88.1628 75.0196 88.2474 75.7166V75.7368V75.7408Z" fill="white"/>
<path d="M49.6197 48.2899L55.325 52.5569C55.7038 52.8389 56.2437 52.569 56.2437 52.0975V47.1134C56.2437 46.6984 56.006 46.3197 55.6313 46.1424L51.9768 44.3977C50.9131 43.8901 49.6398 44.2728 49.0314 45.2801C48.423 46.2874 48.6769 47.5929 49.6197 48.298V48.2899Z" fill="white"/>
<path d="M64.8459 48.2899L59.1406 52.5569C58.7618 52.8389 58.2219 52.569 58.2219 52.0975V47.1134C58.2219 46.6984 58.4596 46.3197 58.8344 46.1424L62.4888 44.3977C63.5525 43.8901 64.8258 44.2728 65.4342 45.2801C66.0426 46.2874 65.7888 47.5929 64.8459 48.298V48.2899Z" fill="white"/>
</svg>
